<?xml version="1.0" encoding="utf-8"?>
<!-- Generator: Adobe Illustrator 19.0.0, SVG Export Plug-In . SVG Version: 6.00 Build 0)  -->
<svg version="1.1" id="Layer_1" xmlns="http://www.w3.org/2000/svg" xmlns:xlink="http://www.w3.org/1999/xlink" x="0px" y="0px"
	 viewBox="0 0 96 96" style="enable-background:new 0 0 96 96;" xml:space="preserve">
<style type="text/css">
	.st0{fill:#25B7D3;}
	.st1{fill:#E2E4E5;}
	.st2{fill:#FFFFFF;}
	.st3{fill:#DF2C2C;}
	.st4{fill:#FA5655;}
</style>
<g id="XMLID_1_">
	<circle id="XMLID_3_" class="st0" cx="48" cy="48" r="32.5"/>
	<path id="XMLID_6_" class="st1" d="M64.8,54.8C63,52.9,60.4,52.3,58,53L45.1,40.1c1-2.9,0.4-6.3-1.9-8.6c-2.3-2.3-5.7-3-8.6-1.9
		l6.1,6.1V39L39,40.7h-3.3l-6.1-6.1c-1,2.9-0.4,6.3,1.9,8.6c2.3,2.3,5.7,3,8.6,1.9L53,58c-0.6,2.4,0,5,1.8,6.8c2.8,2.8,7.3,2.8,10,0
		C67.6,62.1,67.6,57.6,64.8,54.8z M60.9,63.9l-4.1-1.1l-1.1-4.1l3-3l4.1,1.1l1.1,4.1L60.9,63.9z"/>
	<path id="XMLID_7_" class="st2" d="M58,53L45.1,40.1c1-2.9,0.4-6.3-1.9-8.6c-2.3-2.3-5.7-3-8.6-1.9l6.1,6.1V39l-0.8,0.8l17.3,17.3
		l1.5-1.5l4.1,1.1l1.1,4.1l-1.5,1.5l2.4,2.4c2.7-2.8,2.7-7.2,0-10C63,52.9,60.4,52.3,58,53z"/>
	<path id="XMLID_8_" class="st3" d="M47.3,55.7c0.4-0.4,0.6-1.1,0.5-1.7c-0.2-0.6,0-1.2,0.5-1.7l1.7-1.7c0.2-0.2,0.2-0.6,0-0.8
		l-3.3-3.3c-0.2-0.2-0.6-0.2-0.8,0L44,48.1c-0.5,0.5-1.1,0.6-1.7,0.5c-0.6-0.2-1.3,0-1.7,0.5L29.8,59.8c-2.1,2.1,4.6,8.8,6.7,6.7
		L47.3,55.7z"/>
	<polygon id="XMLID_9_" class="st1" points="64.7,30 57.6,33.8 57.1,36.7 46.9,46.9 49.5,49.4 59.6,39.2 62.5,38.8 66.4,31.7 	"/>
	<polygon id="XMLID_10_" class="st2" points="64.7,30 57.6,33.8 57.1,36.7 46.9,46.9 48.3,48.3 65.6,31 	"/>
	<path id="XMLID_11_" class="st4" d="M46.5,46.5c-0.2-0.2-0.6-0.2-0.8,0L44,48.1c-0.5,0.5-1.1,0.6-1.7,0.5c-0.6-0.2-1.3,0-1.7,0.5
		L29.8,59.8c-1.1,1.1,0.2,3.4,1.9,5l16.6-16.6L46.5,46.5z"/>
</g>
</svg>
